<svg width="32" height="33" viewBox="0 0 32 33" fill="none" xmlns="http://www.w3.org/2000/svg">
<path d="M16.7917 13.3333C16.7917 10.7208 14.6542 8.58333 12.0417 8.58333C9.42921 8.58333 7.29171 10.7208 7.29171 13.3333C7.29171 15.9458 9.42921 18.0833 12.0417 18.0833C14.6542 18.0833 16.7917 15.9458 16.7917 13.3333ZM12.0417 14.9167C11.1709 14.9167 10.4584 14.2042 10.4584 13.3333C10.4584 12.4625 11.1709 11.75 12.0417 11.75C12.9125 11.75 13.625 12.4625 13.625 13.3333C13.625 14.2042 12.9125 14.9167 12.0417 14.9167ZM22.3334 18.0833C24.0909 18.0833 25.5 16.6742 25.5 14.9167C25.5 13.1592 24.0909 11.75 22.3334 11.75C20.5759 11.75 19.1509 13.1592 19.1667 14.9167C19.1667 16.6742 20.5759 18.0833 22.3334 18.0833ZM15.9842 0.682495C7.24421 0.682495 0.150879 7.77583 0.150879 16.5158C0.150879 25.2558 7.24421 32.3492 15.9842 32.3492C24.7242 32.3492 31.8175 25.2558 31.8175 16.5158C31.8175 7.77583 24.7242 0.682495 15.9842 0.682495ZM6.24671 24.6067C7.32338 23.7517 9.84088 22.8492 12.0417 22.8492C12.1525 22.8492 12.2792 22.865 12.4059 22.865C12.7859 21.8517 13.4667 20.8225 14.4642 19.92C13.5775 19.7617 12.7384 19.6667 12.0417 19.6667C9.98338 19.6667 6.67421 20.3792 4.55255 21.9308C3.76088 20.2842 3.31755 18.4475 3.31755 16.5C3.31755 9.51749 9.00171 3.83333 15.9842 3.83333C22.9667 3.83333 28.6509 9.51749 28.6509 16.5C28.6509 18.4 28.2234 20.205 27.4634 21.8358C25.88 20.9017 23.7267 20.4583 22.3334 20.4583C19.9267 20.4583 15.2084 21.7408 15.2084 24.7333V29.135C11.6142 28.9292 8.41588 27.2192 6.24671 24.6067Z" fill="#FFFDE7"/>
</svg>
